{"accessors" : [{"bufferView" : 0, "byteOffset" : 0, "componentType" : 5123, "count" : 3072, "type" : "SCALAR", "max" : [2482], "min" : [0]}, {"bufferView" : 1, "byteOffset" : 0, "componentType" : 5126, "count" : 2483, "type" : "VEC3", "max" : [0.8863914012908936, 0.10111205279827118, 0.9499024152755737], "min" : [-0.8863916397094727, -0.10111196339130402, -0.8667991161346436], "name" : "POSITION"}, {"bufferView" : 1, "byteOffset" : 12, "componentType" : 5126, "count" : 2483, "type" : "VEC3", "max" : [0.9914584159851074, 0.9953356981277466, 0.9915051460266113], "min" : [-0.9914584159851074, -0.9953356981277466, -0.9912269115447998], "name" : "NORMAL"}, {"bufferView" : 1, "byteOffset" : 24, "componentType" : 5126, "count" : 2483, "type" : "VEC2", "max" : [0, 1], "min" : [0, 1], "name" : "TEXCOORD_0"}, {"bufferView" : 0, "byteOffset" : 6144, "componentType" : 5123, "count" : 4962, "type" : "SCALAR", "max" : [4077], "min" : [0]}, {"bufferView" : 2, "byteOffset" : 0, "componentType" : 5126, "count" : 4078, "type" : "VEC3", "max" : [0.9128905534744263, 0.7918307781219482, 0.8829720616340637], "min" : [-0.9128904342651367, -0.566178560256958, -0.8829720616340637], "name" : "POSITION"}, {"bufferView" : 2, "byteOffset" : 12, "componentType" : 5126, "count" : 4078, "type" : "VEC3", "max" : [0.9966623187065125, 1.0000044107437134, 0.9979893565177917], "min" : [-0.9966623187065125, -1.0000044107437134, -0.9979893565177917], "name" : "NORMAL"}, {"bufferView" : 2, "byteOffset" : 24, "componentType" : 5126, "count" : 4078, "type" : "VEC2", "max" : [1, 0.31250035762786865], "min" : [-9.105869480663387E-07, 0], "name" : "TEXCOORD_0"}, {"bufferView" : 0, "byteOffset" : 16068, "componentType" : 5123, "count" : 720, "type" : "SCALAR", "max" : [620], "min" : [0]}, {"bufferView" : 3, "byteOffset" : 0, "componentType" : 5126, "count" : 621, "type" : "VEC3", "max" : [0.0061652278527617455, 0.007889822125434875, 0.0061652278527617455], "min" : [-0.0061652278527617455, -0.00010751001536846161, -0.0061652278527617455], "name" : "POSITION"}, {"bufferView" : 3, "byteOffset" : 12, "componentType" : 5126, "count" : 621, "type" : "VEC3", "max" : [0.9781694412231445, 1.0000044107437134, 0.9782998561859131], "min" : [-0.9783394932746887, -0.7281308174133301, -0.9783158302307129], "name" : "NORMAL"}, {"bufferView" : 3, "byteOffset" : 24, "componentType" : 5126, "count" : 621, "type" : "VEC2", "max" : [0, 1], "min" : [0, 1], "name" : "TEXCOORD_0"}, {"bufferView" : 0, "byteOffset" : 17508, "componentType" : 5123, "count" : 5400, "type" : "SCALAR", "max" : [4567], "min" : [0]}, {"bufferView" : 4, "byteOffset" : 0, "componentType" : 5126, "count" : 4568, "type" : "VEC3", "max" : [0.17983970046043396, 0.11372636258602142, 0.1707034856081009], "min" : [-0.17983968555927277, -0.19648033380508423, -0.17070351541042328], "name" : "POSITION"}, {"bufferView" : 4, "byteOffset" : 12, "componentType" : 5126, "count" : 4568, "type" : "VEC3", "max" : [0.9989144802093506, 0.999507486820221, 0.9996533393859863], "min" : [-0.9989144802093506, -1.0000044107437134, -0.9996533393859863], "name" : "NORMAL"}, {"bufferView" : 4, "byteOffset" : 24, "componentType" : 5126, "count" : 4568, "type" : "VEC2", "max" : [0, 1], "min" : [0, 1], "name" : "TEXCOORD_0"}, {"bufferView" : 0, "byteOffset" : 28308, "componentType" : 5123, "count" : 2304, "type" : "SCALAR", "max" : [1902], "min" : [0]}, {"bufferView" : 5, "byteOffset" : 0, "componentType" : 5126, "count" : 1903, "type" : "VEC3", "max" : [3.676140308380127, 2.5572612285614014, 3.676140308380127], "min" : [-3.676140308380127, 0, -4.809576034545898], "name" : "POSITION"}, {"bufferView" : 5, "byteOffset" : 12, "componentType" : 5126, "count" : 1903, "type" : "VEC3", "max" : [0, 1.0000044107437134, 1.0000044107437134], "min" : [0, 0, -0], "name" : "NORMAL"}, {"bufferView" : 5, "byteOffset" : 24, "componentType" : 5126, "count" : 1903, "type" : "VEC2", "max" : [1, 1], "min" : [0, -1.1920928955078125E-07], "name" : "TEXCOORD_0"}, {"bufferView" : 5, "byteOffset" : 32, "componentType" : 5126, "count" : 1903, "type" : "VEC2", "max" : [2.3380701541900635, 2.3380701541900635], "min" : [-1.3380701541900635, -1.6223182678222656], "name" : "TEXCOORD_1"}, {"bufferView" : 0, "byteOffset" : 32916, "componentType" : 5123, "count" : 6, "type" : "SCALAR", "max" : [4], "min" : [0]}, {"bufferView" : 6, "byteOffset" : 0, "componentType" : 5126, "count" : 5, "type" : "VEC3", "max" : [1, 0, 1], "min" : [-1, 0, -1], "name" : "POSITION"}, {"bufferView" : 6, "byteOffset" : 12, "componentType" : 5126, "count" : 5, "type" : "VEC3", "max" : [0, 1.0000044107437134, -0], "min" : [0, 1.0000044107437134, -0], "name" : "NORMAL"}, {"bufferView" : 6, "byteOffset" : 24, "componentType" : 5126, "count" : 5, "type" : "VEC2", "max" : [1, 1], "min" : [0, 0], "name" : "TEXCOORD_0"}], "asset" : {"generator" : "Aspose.3D 23.9.0", "version" : "2.0"}, "buffers" : [{"uri" : "data:application/octet-stream;base64,", "byteLength" : 578236}], "bufferViews" : [{"buffer" : 0, "byteOffset" : 0, "byteLength" : 32928, "target" : 34963}, {"buffer" : 0, "byteOffset" : 32932, "byteLength" : 98304, "byteStride" : 32, "target" : 34962}, {"buffer" : 0, "byteOffset" : 131240, "byteLength" : 158784, "byteStride" : 32, "target" : 34962}, {"buffer" : 0, "byteOffset" : 290028, "byteLength" : 23040, "byteStride" : 32, "target" : 34962}, {"buffer" : 0, "byteOffset" : 313072, "byteLength" : 172800, "byteStride" : 32, "target" : 34962}, {"buffer" : 0, "byteOffset" : 485876, "byteLength" : 92160, "byteStride" : 40, "target" : 34962}, {"buffer" : 0, "byteOffset" : 578040, "byteLength" : 192, "byteStride" : 32, "target" : 34962}], "materials" : [{"name" : "Material.001", "pbrMetallicRoughness" : {"baseColorFactor" : [0.4479887783527374, 0.4479887783527374, 0.4479887783527374, 1], "metallicFactor" : 1, "roughnessFactor" : 0.1599999964237213}, "emissiveFactor" : [0, 0, 0], "alphaMode" : "OPAQUE", "doubleSided" : true}, {"name" : "Material.001", "pbrMetallicRoughness" : {"baseColorFactor" : [0.4479887783527374, 0.4479887783527374, 0.4479887783527374, 1], "metallicFactor" : 1, "roughnessFactor" : 0.1599999964237213}, "emissiveFactor" : [0, 0, 0], "alphaMode" : "OPAQUE", "doubleSided" : true}, {"name" : "Diamond", "pbrMetallicRoughness" : {"baseColorFactor" : [1, 1, 1, 1], "metallicFactor" : 1, "roughnessFactor" : 1}, "emissiveFactor" : [0, 0, 0], "alphaMode" : "OPAQUE", "doubleSided" : true}, {"name" : "Material.003", "pbrMetallicRoughness" : {"baseColorFactor" : [1, 1, 1, 1], "metallicFactor" : 0, "roughnessFactor" : 1}, "emissiveFactor" : [0, 0, 0], "alphaMode" : "OPAQUE", "doubleSided" : true}, {"name" : "Material.004", "pbrMetallicRoughness" : {"baseColorFactor" : [0, 0, 0, 1], "metallicFactor" : 0, "roughnessFactor" : 1}, "emissiveFactor" : [0, 0, 0], "alphaMode" : "OPAQUE", "doubleSided" : true}], "meshes" : [{"primitives" : [{"attributes" : {"POSITION" : 1, "NORMAL" : 2, "TEXCOORD_0" : 3}, "indices" : 0, "material" : 0, "mode" : 4}]}, {"primitives" : [{"attributes" : {"POSITION" : 5, "NORMAL" : 6, "TEXCOORD_0" : 7}, "indices" : 4, "material" : 1, "mode" : 4}]}, {"primitives" : [{"attributes" : {"POSITION" : 9, "NORMAL" : 10, "TEXCOORD_0" : 11}, "indices" : 8, "material" : 2, "mode" : 4}]}, {"primitives" : [{"attributes" : {"POSITION" : 13, "NORMAL" : 14, "TEXCOORD_0" : 15}, "indices" : 12, "mode" : 4}]}, {"primitives" : [{"attributes" : {"POSITION" : 17, "NORMAL" : 18, "TEXCOORD_0" : 19, "TEXCOORD_1" : 20}, "indices" : 16, "material" : 3, "mode" : 4}]}, {"primitives" : [{"attributes" : {"POSITION" : 22, "NORMAL" : 23, "TEXCOORD_0" : 24}, "indices" : 21, "material" : 4, "mode" : 4}]}], "nodes" : [{"matrix" : [96.471923828125, 0, 0, 0, 0, -77.92800903320312, 1.6453873044120545E-05, 0, 0, -2.03692716737279E-05, -96.471923828125, 0, 0, 0.04199182987213135, 0, 1], "mesh" : 2, "name" : "DIA(WHITE)"}, {"children" : [0], "matrix" : [-0.20886838496391869, 3.3154856530729135E-08, 3.31548453517491E-08, 0, -4.10444630144491E-08, -7.833318257959123E-08, -0.25857119867282324, 0, -3.315484298640472E-08, -0.20886837721200094, 7.757440631380413E-08, 0, 0, 0, 0.8954079151153564, 1], "mesh" : 1, "name" : "Sphere"}, {"children" : [1], "matrix" : [-0.8761728999979147, 8.459943170671014E-09, -0.3984922455328209, 0, -0.015758632729731374, -0.9617828177706549, 0.034648792152528016, 0, -0.39818053097091466, 0.038064068399733315, 0.8754870440908692, 0, 0, 0.13289257884025574, 0.09170033782720566, 1], "mesh" : 0, "name" : "Circle"}, {"matrix" : [1, 0, 0, 0, 0, -1, -3.2584136988589307E-07, 0, 0, 3.2584136988589307E-07, -1, 0, -10.829837799072266, 0, 0.25175875425338745, 1], "mesh" : 3, "name" : "Circle.002"}, {"mesh" : 4, "name" : "Plane"}, {"matrix" : [-0.8683903590900043, 7.54608867193107E-08, 1.250148629616796, 0, 0.004640417520576534, -0.0005069567928877369, 0.003223371260693964, 0, 0.0072010312935100965, 0.09771895976186289, 0.005002033501968394, 0, 1.986618995666504, 0.4122903048992157, 2.351153612136841, 1], "mesh" : 5, "name" : "Plane.001"}], "scene" : 0, "scenes" : [{"nodes" : [2, 3, 4, 5]}]}